<svg xmlns="http://www.w3.org/2000/svg" width="40" height="40" viewBox="0 0 40 40"><g transform="translate(-947 -2923.721)"><rect width="27" height="39" transform="translate(956 2924)" fill="#f7edd8"/><path d="M35.113,0A4.889,4.889,0,0,1,40,4.887V35.113A4.889,4.889,0,0,1,35.113,40H26.8V24.929H32l.99-6.455H26.8V14.285c0-1.766.865-3.487,3.639-3.487H33.25V5.3a34.343,34.343,0,0,0-5-.436c-5.1,0-8.434,3.091-8.434,8.688v4.92h-5.67v6.455h5.67V40H4.887A4.889,4.889,0,0,1,0,35.113V4.887A4.889,4.889,0,0,1,4.887,0H35.113Z" transform="translate(947 2923.721)" fill="#1777f2" fill-rule="evenodd"/></g></svg>