<svg xmlns="http://www.w3.org/2000/svg" width="519.417" height="342.422" viewBox="0 0 519.417 342.422"><g transform="translate(-438 -2081.442)"><g transform="translate(-20 -8)"><g transform="translate(458 2089.442)"><path d="M44.26,0a5.971,5.971,0,0,0-5.74,6.176V10.3a80.8,80.8,0,0,1-9.826,38.8A74.54,74.54,0,0,1,2.87,76.609a6.441,6.441,0,0,0-2.1,8.438,5.526,5.526,0,0,0,7.842,2.26A86.512,86.512,0,0,0,38.577,55.388,93.877,93.877,0,0,0,50,10.3V6.176A5.971,5.971,0,0,0,44.26,0Zm0,0" transform="translate(64.737 94.954) rotate(-130)" fill="#6da319"/><path d="M7.738,0A7.737,7.737,0,0,0,2.273,13.215L18,28.908,2.273,44.6A7.737,7.737,0,1,0,13.2,55.557l21.217-21.17a7.742,7.742,0,0,0,0-10.956L13.2,2.261A7.711,7.711,0,0,0,7.738,0Zm0,0" transform="translate(54.252 82.097) rotate(160)" fill="#41761e"/></g><g transform="matrix(0.53, -0.848, 0.848, 0.53, 458.822, 2408.838)"><path d="M57.147,113.8a7.709,7.709,0,0,1-7.412-7.974v-5.329a104.327,104.327,0,0,0-12.687-50.1A96.244,96.244,0,0,0,3.706,14.882,8.316,8.316,0,0,1,.994,3.988,7.135,7.135,0,0,1,11.12,1.07,111.7,111.7,0,0,1,49.81,42.282a121.211,121.211,0,0,1,14.748,58.212v5.329a7.709,7.709,0,0,1-7.412,7.974Zm0,0" transform="matrix(-0.788, 0.616, -0.616, -0.788, 170.541, 104.376)" fill="#6da319"/><path d="M8.377,62.591A8.376,8.376,0,0,1,2.461,48.286L19.484,31.3,2.461,14.306A8.376,8.376,0,1,1,14.293,2.448L37.261,25.366a8.382,8.382,0,0,1,0,11.86L14.293,60.144a8.348,8.348,0,0,1-5.916,2.448Zm0,0" transform="matrix(-0.799, -0.602, 0.602, -0.799, 39.51, 79.82)" fill="#41761e"/></g></g><g transform="translate(744 2081.442)"><g transform="translate(81.165 0)"><path d="M44.26,88.135a5.971,5.971,0,0,1-5.74-6.176V77.832a80.8,80.8,0,0,0-9.826-38.8A74.54,74.54,0,0,0,2.87,11.526,6.441,6.441,0,0,1,.77,3.089,5.526,5.526,0,0,1,8.612.829,86.512,86.512,0,0,1,38.577,32.747,93.877,93.877,0,0,1,50,77.832v4.127a5.971,5.971,0,0,1-5.74,6.176Zm0,0" transform="translate(0 38.302) rotate(-50)" fill="#6da319"/><path d="M7.738,57.818A7.737,7.737,0,0,1,2.273,44.6L18,28.91,2.273,13.215A7.737,7.737,0,1,1,13.2,2.261l21.217,21.17a7.742,7.742,0,0,1,0,10.956L13.2,55.557a7.711,7.711,0,0,1-5.465,2.261Zm0,0" transform="translate(97.775 27.766) rotate(20)" fill="#41761e"/></g><g transform="matrix(-0.53, -0.848, 0.848, -0.53, 86.246, 389.164)"><path d="M57.147,0a7.709,7.709,0,0,0-7.412,7.974V13.3A104.327,104.327,0,0,1,37.048,63.4,96.244,96.244,0,0,1,3.706,98.915,8.316,8.316,0,0,0,.994,109.809a7.135,7.135,0,0,0,10.126,2.918A111.7,111.7,0,0,0,49.81,71.515,121.211,121.211,0,0,0,64.558,13.3V7.975A7.709,7.709,0,0,0,57.147,0Zm0,0" transform="matrix(-0.788, -0.616, 0.616, -0.788, 92.692, 129.42)" fill="#6da319"/><path d="M8.377,0A8.376,8.376,0,0,0,2.461,14.306L19.484,31.295,2.461,48.286A8.376,8.376,0,1,0,14.293,60.144L37.261,37.226a8.382,8.382,0,0,0,0-11.86L14.293,2.448A8.348,8.348,0,0,0,8.377,0Zm0,0" transform="matrix(-0.799, 0.602, -0.602, -0.799, 69.39, 114.29)" fill="#41761e"/></g></g></g></svg>